<mxfile host="app.diagrams.net" agent="Mozilla/5.0 (Windows NT 10.0; Win64; x64) AppleWebKit/537.36 (KHTML, like Gecko) Chrome/131.0.0.0 Safari/537.36" version="25.0.3">
  <diagram name="Page-1" id="j2TKDSklIhWi3Hp0C_mo">
    <mxGraphModel dx="1400" dy="743" grid="1" gridSize="10" guides="1" tooltips="1" connect="1" arrows="1" fold="1" page="1" pageScale="1" pageWidth="850" pageHeight="1100" math="0" shadow="0">
      <root>
        <mxCell id="0" />
        <mxCell id="1" parent="0" />
        <mxCell id="LgvOTOigchcrtrP7fXOq-3" style="edgeStyle=orthogonalEdgeStyle;rounded=0;orthogonalLoop=1;jettySize=auto;html=1;exitX=0.5;exitY=1;exitDx=0;exitDy=0;entryX=0.5;entryY=0;entryDx=0;entryDy=0;" edge="1" parent="1" source="LgvOTOigchcrtrP7fXOq-1" target="LgvOTOigchcrtrP7fXOq-2">
          <mxGeometry relative="1" as="geometry" />
        </mxCell>
        <mxCell id="LgvOTOigchcrtrP7fXOq-1" value="MainScreen" style="rounded=1;whiteSpace=wrap;html=1;" vertex="1" parent="1">
          <mxGeometry x="350" y="40" width="120" height="60" as="geometry" />
        </mxCell>
        <mxCell id="LgvOTOigchcrtrP7fXOq-6" style="edgeStyle=orthogonalEdgeStyle;rounded=0;orthogonalLoop=1;jettySize=auto;html=1;exitX=0.25;exitY=1;exitDx=0;exitDy=0;entryX=0.75;entryY=0;entryDx=0;entryDy=0;" edge="1" parent="1" source="LgvOTOigchcrtrP7fXOq-2" target="LgvOTOigchcrtrP7fXOq-4">
          <mxGeometry relative="1" as="geometry" />
        </mxCell>
        <mxCell id="LgvOTOigchcrtrP7fXOq-8" style="edgeStyle=orthogonalEdgeStyle;rounded=0;orthogonalLoop=1;jettySize=auto;html=1;exitX=0.75;exitY=1;exitDx=0;exitDy=0;entryX=0.25;entryY=0;entryDx=0;entryDy=0;" edge="1" parent="1" source="LgvOTOigchcrtrP7fXOq-42" target="LgvOTOigchcrtrP7fXOq-5">
          <mxGeometry relative="1" as="geometry" />
        </mxCell>
        <mxCell id="LgvOTOigchcrtrP7fXOq-2" value="HomeScreen" style="rounded=1;whiteSpace=wrap;html=1;" vertex="1" parent="1">
          <mxGeometry x="360" y="160" width="120" height="60" as="geometry" />
        </mxCell>
        <mxCell id="LgvOTOigchcrtrP7fXOq-10" style="edgeStyle=orthogonalEdgeStyle;rounded=0;orthogonalLoop=1;jettySize=auto;html=1;exitX=0.5;exitY=1;exitDx=0;exitDy=0;entryX=0.5;entryY=0;entryDx=0;entryDy=0;" edge="1" parent="1" source="LgvOTOigchcrtrP7fXOq-4" target="LgvOTOigchcrtrP7fXOq-9">
          <mxGeometry relative="1" as="geometry" />
        </mxCell>
        <mxCell id="LgvOTOigchcrtrP7fXOq-4" value="CvStyleItem" style="rounded=1;whiteSpace=wrap;html=1;" vertex="1" parent="1">
          <mxGeometry x="200" y="280" width="120" height="60" as="geometry" />
        </mxCell>
        <mxCell id="LgvOTOigchcrtrP7fXOq-34" style="edgeStyle=orthogonalEdgeStyle;rounded=0;orthogonalLoop=1;jettySize=auto;html=1;exitX=0.75;exitY=1;exitDx=0;exitDy=0;entryX=0.25;entryY=0;entryDx=0;entryDy=0;" edge="1" parent="1" source="LgvOTOigchcrtrP7fXOq-35" target="LgvOTOigchcrtrP7fXOq-29">
          <mxGeometry relative="1" as="geometry" />
        </mxCell>
        <mxCell id="LgvOTOigchcrtrP7fXOq-5" value="SaveWork" style="rounded=1;whiteSpace=wrap;html=1;" vertex="1" parent="1">
          <mxGeometry x="470" y="290" width="120" height="60" as="geometry" />
        </mxCell>
        <mxCell id="LgvOTOigchcrtrP7fXOq-12" style="edgeStyle=orthogonalEdgeStyle;rounded=0;orthogonalLoop=1;jettySize=auto;html=1;exitX=0.75;exitY=1;exitDx=0;exitDy=0;entryX=0.5;entryY=0;entryDx=0;entryDy=0;" edge="1" parent="1" source="LgvOTOigchcrtrP7fXOq-9" target="LgvOTOigchcrtrP7fXOq-11">
          <mxGeometry relative="1" as="geometry" />
        </mxCell>
        <mxCell id="LgvOTOigchcrtrP7fXOq-9" value="CvForm" style="rounded=1;whiteSpace=wrap;html=1;" vertex="1" parent="1">
          <mxGeometry x="110" y="410" width="120" height="60" as="geometry" />
        </mxCell>
        <mxCell id="LgvOTOigchcrtrP7fXOq-15" style="edgeStyle=orthogonalEdgeStyle;rounded=0;orthogonalLoop=1;jettySize=auto;html=1;exitX=0;exitY=0.5;exitDx=0;exitDy=0;entryX=1;entryY=0.5;entryDx=0;entryDy=0;" edge="1" parent="1" source="LgvOTOigchcrtrP7fXOq-11" target="LgvOTOigchcrtrP7fXOq-14">
          <mxGeometry relative="1" as="geometry" />
        </mxCell>
        <mxCell id="LgvOTOigchcrtrP7fXOq-16" style="edgeStyle=orthogonalEdgeStyle;rounded=0;orthogonalLoop=1;jettySize=auto;html=1;exitX=0.25;exitY=1;exitDx=0;exitDy=0;entryX=1;entryY=0.5;entryDx=0;entryDy=0;" edge="1" parent="1" source="LgvOTOigchcrtrP7fXOq-11" target="LgvOTOigchcrtrP7fXOq-13">
          <mxGeometry relative="1" as="geometry" />
        </mxCell>
        <mxCell id="LgvOTOigchcrtrP7fXOq-22" style="edgeStyle=orthogonalEdgeStyle;rounded=0;orthogonalLoop=1;jettySize=auto;html=1;exitX=1;exitY=0.5;exitDx=0;exitDy=0;entryX=0;entryY=0.25;entryDx=0;entryDy=0;" edge="1" parent="1" source="LgvOTOigchcrtrP7fXOq-11" target="LgvOTOigchcrtrP7fXOq-21">
          <mxGeometry relative="1" as="geometry" />
        </mxCell>
        <mxCell id="LgvOTOigchcrtrP7fXOq-11" value="CvFormSecondPage" style="rounded=1;whiteSpace=wrap;html=1;" vertex="1" parent="1">
          <mxGeometry x="220" y="520" width="120" height="60" as="geometry" />
        </mxCell>
        <mxCell id="LgvOTOigchcrtrP7fXOq-13" value="ExperienceForm" style="rounded=1;whiteSpace=wrap;html=1;" vertex="1" parent="1">
          <mxGeometry x="40" y="620" width="120" height="60" as="geometry" />
        </mxCell>
        <mxCell id="LgvOTOigchcrtrP7fXOq-20" style="edgeStyle=orthogonalEdgeStyle;rounded=0;orthogonalLoop=1;jettySize=auto;html=1;exitX=1;exitY=0.75;exitDx=0;exitDy=0;entryX=0;entryY=0.75;entryDx=0;entryDy=0;" edge="1" parent="1" source="LgvOTOigchcrtrP7fXOq-14" target="LgvOTOigchcrtrP7fXOq-11">
          <mxGeometry relative="1" as="geometry" />
        </mxCell>
        <mxCell id="LgvOTOigchcrtrP7fXOq-14" value="EducationForm" style="rounded=1;whiteSpace=wrap;html=1;" vertex="1" parent="1">
          <mxGeometry x="40" y="510" width="120" height="60" as="geometry" />
        </mxCell>
        <mxCell id="LgvOTOigchcrtrP7fXOq-19" style="edgeStyle=orthogonalEdgeStyle;rounded=0;orthogonalLoop=1;jettySize=auto;html=1;exitX=1;exitY=0.25;exitDx=0;exitDy=0;entryX=0.109;entryY=1.026;entryDx=0;entryDy=0;entryPerimeter=0;" edge="1" parent="1" source="LgvOTOigchcrtrP7fXOq-13" target="LgvOTOigchcrtrP7fXOq-11">
          <mxGeometry relative="1" as="geometry" />
        </mxCell>
        <mxCell id="LgvOTOigchcrtrP7fXOq-25" style="edgeStyle=orthogonalEdgeStyle;rounded=0;orthogonalLoop=1;jettySize=auto;html=1;exitX=0;exitY=0.75;exitDx=0;exitDy=0;entryX=0.5;entryY=0;entryDx=0;entryDy=0;" edge="1" parent="1" source="LgvOTOigchcrtrP7fXOq-21" target="LgvOTOigchcrtrP7fXOq-23">
          <mxGeometry relative="1" as="geometry" />
        </mxCell>
        <mxCell id="LgvOTOigchcrtrP7fXOq-26" style="edgeStyle=orthogonalEdgeStyle;rounded=0;orthogonalLoop=1;jettySize=auto;html=1;exitX=1;exitY=0.75;exitDx=0;exitDy=0;entryX=0.75;entryY=0;entryDx=0;entryDy=0;" edge="1" parent="1" source="LgvOTOigchcrtrP7fXOq-21" target="LgvOTOigchcrtrP7fXOq-24">
          <mxGeometry relative="1" as="geometry" />
        </mxCell>
        <mxCell id="LgvOTOigchcrtrP7fXOq-30" style="edgeStyle=orthogonalEdgeStyle;rounded=0;orthogonalLoop=1;jettySize=auto;html=1;exitX=1;exitY=0.5;exitDx=0;exitDy=0;entryX=0.5;entryY=1;entryDx=0;entryDy=0;" edge="1" parent="1" source="LgvOTOigchcrtrP7fXOq-31" target="LgvOTOigchcrtrP7fXOq-29">
          <mxGeometry relative="1" as="geometry" />
        </mxCell>
        <mxCell id="LgvOTOigchcrtrP7fXOq-21" value="CvFormThirdPage" style="rounded=1;whiteSpace=wrap;html=1;" vertex="1" parent="1">
          <mxGeometry x="400" y="530" width="120" height="60" as="geometry" />
        </mxCell>
        <mxCell id="LgvOTOigchcrtrP7fXOq-27" style="edgeStyle=orthogonalEdgeStyle;rounded=0;orthogonalLoop=1;jettySize=auto;html=1;exitX=0.75;exitY=0;exitDx=0;exitDy=0;entryX=0.25;entryY=1;entryDx=0;entryDy=0;" edge="1" parent="1" source="LgvOTOigchcrtrP7fXOq-23" target="LgvOTOigchcrtrP7fXOq-21">
          <mxGeometry relative="1" as="geometry" />
        </mxCell>
        <mxCell id="LgvOTOigchcrtrP7fXOq-23" value="SkillForm" style="rounded=1;whiteSpace=wrap;html=1;" vertex="1" parent="1">
          <mxGeometry x="290" y="650" width="120" height="60" as="geometry" />
        </mxCell>
        <mxCell id="LgvOTOigchcrtrP7fXOq-28" style="edgeStyle=orthogonalEdgeStyle;rounded=0;orthogonalLoop=1;jettySize=auto;html=1;exitX=0.5;exitY=0;exitDx=0;exitDy=0;entryX=0.75;entryY=1;entryDx=0;entryDy=0;" edge="1" parent="1" source="LgvOTOigchcrtrP7fXOq-24" target="LgvOTOigchcrtrP7fXOq-21">
          <mxGeometry relative="1" as="geometry" />
        </mxCell>
        <mxCell id="LgvOTOigchcrtrP7fXOq-24" value="ReferenceForm" style="rounded=1;whiteSpace=wrap;html=1;" vertex="1" parent="1">
          <mxGeometry x="440" y="660" width="120" height="60" as="geometry" />
        </mxCell>
        <mxCell id="LgvOTOigchcrtrP7fXOq-33" style="edgeStyle=orthogonalEdgeStyle;rounded=0;orthogonalLoop=1;jettySize=auto;html=1;exitX=0.5;exitY=0;exitDx=0;exitDy=0;entryX=1;entryY=0.5;entryDx=0;entryDy=0;" edge="1" parent="1" source="LgvOTOigchcrtrP7fXOq-37" target="LgvOTOigchcrtrP7fXOq-2">
          <mxGeometry relative="1" as="geometry" />
        </mxCell>
        <mxCell id="LgvOTOigchcrtrP7fXOq-39" style="edgeStyle=orthogonalEdgeStyle;rounded=0;orthogonalLoop=1;jettySize=auto;html=1;exitX=0;exitY=0.25;exitDx=0;exitDy=0;entryX=1;entryY=0.5;entryDx=0;entryDy=0;" edge="1" parent="1" source="LgvOTOigchcrtrP7fXOq-40" target="LgvOTOigchcrtrP7fXOq-9">
          <mxGeometry relative="1" as="geometry" />
        </mxCell>
        <mxCell id="LgvOTOigchcrtrP7fXOq-29" value="CvView" style="rounded=1;whiteSpace=wrap;html=1;" vertex="1" parent="1">
          <mxGeometry x="600" y="460" width="120" height="60" as="geometry" />
        </mxCell>
        <mxCell id="LgvOTOigchcrtrP7fXOq-32" value="" style="edgeStyle=orthogonalEdgeStyle;rounded=0;orthogonalLoop=1;jettySize=auto;html=1;exitX=1;exitY=0.5;exitDx=0;exitDy=0;entryX=0.5;entryY=1;entryDx=0;entryDy=0;" edge="1" parent="1" source="LgvOTOigchcrtrP7fXOq-21" target="LgvOTOigchcrtrP7fXOq-31">
          <mxGeometry relative="1" as="geometry">
            <mxPoint x="520" y="560" as="sourcePoint" />
            <mxPoint x="660" y="520" as="targetPoint" />
          </mxGeometry>
        </mxCell>
        <mxCell id="LgvOTOigchcrtrP7fXOq-31" value="Mode.creating" style="text;html=1;align=center;verticalAlign=middle;whiteSpace=wrap;rounded=0;" vertex="1" parent="1">
          <mxGeometry x="590" y="550" width="60" height="30" as="geometry" />
        </mxCell>
        <mxCell id="LgvOTOigchcrtrP7fXOq-36" value="" style="edgeStyle=orthogonalEdgeStyle;rounded=0;orthogonalLoop=1;jettySize=auto;html=1;exitX=0.75;exitY=1;exitDx=0;exitDy=0;entryX=0.25;entryY=0;entryDx=0;entryDy=0;" edge="1" parent="1" source="LgvOTOigchcrtrP7fXOq-5" target="LgvOTOigchcrtrP7fXOq-35">
          <mxGeometry relative="1" as="geometry">
            <mxPoint x="590" y="340" as="sourcePoint" />
            <mxPoint x="630" y="460" as="targetPoint" />
          </mxGeometry>
        </mxCell>
        <mxCell id="LgvOTOigchcrtrP7fXOq-35" value="Mode.view" style="text;html=1;align=center;verticalAlign=middle;whiteSpace=wrap;rounded=0;" vertex="1" parent="1">
          <mxGeometry x="560" y="370" width="60" height="30" as="geometry" />
        </mxCell>
        <mxCell id="LgvOTOigchcrtrP7fXOq-38" value="" style="edgeStyle=orthogonalEdgeStyle;rounded=0;orthogonalLoop=1;jettySize=auto;html=1;exitX=0.5;exitY=0;exitDx=0;exitDy=0;entryX=1;entryY=0.5;entryDx=0;entryDy=0;" edge="1" parent="1" source="LgvOTOigchcrtrP7fXOq-29" target="LgvOTOigchcrtrP7fXOq-37">
          <mxGeometry relative="1" as="geometry">
            <mxPoint x="660" y="460" as="sourcePoint" />
            <mxPoint x="480" y="190" as="targetPoint" />
          </mxGeometry>
        </mxCell>
        <mxCell id="LgvOTOigchcrtrP7fXOq-37" value="if Mode.creating&lt;br&gt;-&amp;gt;Save" style="text;html=1;align=center;verticalAlign=middle;whiteSpace=wrap;rounded=0;" vertex="1" parent="1">
          <mxGeometry x="600" y="320" width="90" height="30" as="geometry" />
        </mxCell>
        <mxCell id="LgvOTOigchcrtrP7fXOq-41" value="" style="edgeStyle=orthogonalEdgeStyle;rounded=0;orthogonalLoop=1;jettySize=auto;html=1;exitX=0;exitY=0.25;exitDx=0;exitDy=0;entryX=1;entryY=0.5;entryDx=0;entryDy=0;" edge="1" parent="1" source="LgvOTOigchcrtrP7fXOq-29" target="LgvOTOigchcrtrP7fXOq-40">
          <mxGeometry relative="1" as="geometry">
            <mxPoint x="600" y="475" as="sourcePoint" />
            <mxPoint x="230" y="440" as="targetPoint" />
          </mxGeometry>
        </mxCell>
        <mxCell id="LgvOTOigchcrtrP7fXOq-40" value="if Mode.view&lt;br&gt;-&amp;gt; Edit" style="text;html=1;align=center;verticalAlign=middle;whiteSpace=wrap;rounded=0;" vertex="1" parent="1">
          <mxGeometry x="360" y="425" width="80" height="30" as="geometry" />
        </mxCell>
        <mxCell id="LgvOTOigchcrtrP7fXOq-43" value="" style="edgeStyle=orthogonalEdgeStyle;rounded=0;orthogonalLoop=1;jettySize=auto;html=1;exitX=0.75;exitY=1;exitDx=0;exitDy=0;entryX=0.25;entryY=0;entryDx=0;entryDy=0;" edge="1" parent="1" source="LgvOTOigchcrtrP7fXOq-2" target="LgvOTOigchcrtrP7fXOq-42">
          <mxGeometry relative="1" as="geometry">
            <mxPoint x="450" y="220" as="sourcePoint" />
            <mxPoint x="500" y="280" as="targetPoint" />
          </mxGeometry>
        </mxCell>
        <mxCell id="LgvOTOigchcrtrP7fXOq-42" value="if detail isnotEmpty" style="text;html=1;align=center;verticalAlign=middle;whiteSpace=wrap;rounded=0;" vertex="1" parent="1">
          <mxGeometry x="440" y="240" width="60" height="30" as="geometry" />
        </mxCell>
        <mxCell id="LgvOTOigchcrtrP7fXOq-46" value="" style="whiteSpace=wrap;html=1;aspect=fixed;" vertex="1" parent="1">
          <mxGeometry x="650" y="110" width="190" height="190" as="geometry" />
        </mxCell>
        <mxCell id="LgvOTOigchcrtrP7fXOq-47" value="" style="endArrow=none;html=1;rounded=0;entryX=1;entryY=0.25;entryDx=0;entryDy=0;exitX=0;exitY=0.25;exitDx=0;exitDy=0;" edge="1" parent="1" source="LgvOTOigchcrtrP7fXOq-46" target="LgvOTOigchcrtrP7fXOq-46">
          <mxGeometry width="50" height="50" relative="1" as="geometry">
            <mxPoint x="490" y="200" as="sourcePoint" />
            <mxPoint x="540" y="150" as="targetPoint" />
          </mxGeometry>
        </mxCell>
        <mxCell id="LgvOTOigchcrtrP7fXOq-48" value="Mode:Enum" style="text;html=1;align=center;verticalAlign=middle;whiteSpace=wrap;rounded=0;" vertex="1" parent="1">
          <mxGeometry x="720" y="120" width="60" height="30" as="geometry" />
        </mxCell>
        <mxCell id="LgvOTOigchcrtrP7fXOq-49" value="editing" style="text;html=1;align=center;verticalAlign=middle;whiteSpace=wrap;rounded=0;" vertex="1" parent="1">
          <mxGeometry x="660" y="160" width="60" height="30" as="geometry" />
        </mxCell>
        <mxCell id="LgvOTOigchcrtrP7fXOq-50" value="creating" style="text;html=1;align=center;verticalAlign=middle;whiteSpace=wrap;rounded=0;" vertex="1" parent="1">
          <mxGeometry x="660" y="190" width="60" height="30" as="geometry" />
        </mxCell>
        <mxCell id="LgvOTOigchcrtrP7fXOq-51" value="delete" style="text;html=1;align=center;verticalAlign=middle;whiteSpace=wrap;rounded=0;" vertex="1" parent="1">
          <mxGeometry x="660" y="220" width="60" height="30" as="geometry" />
        </mxCell>
        <mxCell id="LgvOTOigchcrtrP7fXOq-52" value="view" style="text;html=1;align=center;verticalAlign=middle;whiteSpace=wrap;rounded=0;" vertex="1" parent="1">
          <mxGeometry x="660" y="250" width="60" height="30" as="geometry" />
        </mxCell>
      </root>
    </mxGraphModel>
  </diagram>
</mxfile>
